<?xml version="1.0" standalone="no"?>
<!DOCTYPE svg PUBLIC "-//W3C//DTD SVG 20010904//EN"
 "http://www.w3.org/TR/2001/REC-SVG-20010904/DTD/svg10.dtd">
<svg version="1.0" xmlns="http://www.w3.org/2000/svg"
 width="260.000000pt" height="260.000000pt" viewBox="0 0 260.000000 260.000000"
 preserveAspectRatio="xMidYMid meet">
<metadata>
Created by potrace 1.11, written by Peter Selinger 2001-2013
</metadata>
<g transform="translate(0.000000,260.000000) scale(0.100000,-0.100000)"
fill="#000000" stroke="none">
<path d="M1490 2484 c0 -4 22 -28 49 -54 60 -58 81 -122 58 -187 -15 -45 -97
-156 -185 -253 l-60 -65 -12 45 c-14 50 -9 126 15 215 8 33 15 78 15 101 0 70
-21 64 -120 -31 -49 -47 -93 -85 -99 -85 -5 0 -12 8 -16 18 -9 27 -52 72 -70
72 -21 0 -19 -15 10 -74 13 -28 31 -84 39 -125 9 -40 29 -97 45 -126 l30 -53
-27 -10 c-351 -124 -439 -156 -450 -164 -17 -15 0 -34 59 -64 59 -29 135 -41
215 -33 52 5 78 15 160 64 105 63 163 78 199 52 19 -15 19 -16 -18 -50 -20
-20 -66 -49 -102 -66 -66 -31 -80 -55 -26 -45 46 10 49 -14 7 -53 -31 -29 -40
-32 -52 -22 -10 8 -14 24 -11 45 6 40 0 47 -25 33 -44 -24 -55 -99 -63 -459
-7 -279 -1 -310 63 -374 56 -56 79 -57 202 -11 45 17 186 25 208 11 14 -8 78
-113 97 -160 15 -36 15 -36 -7 -32 -13 3 -45 8 -73 11 -27 3 -66 8 -85 11 -19
3 -51 7 -70 10 -140 19 -373 69 -498 106 -64 19 -72 23 -66 41 4 12 7 49 7 82
0 81 -32 140 -124 232 -100 98 -100 103 0 218 40 45 51 66 51 92 0 117 -151
219 -348 236 -23 2 -51 12 -62 22 -18 16 -22 17 -35 4 -27 -26 -29 -91 -5
-142 12 -25 30 -53 40 -62 29 -26 86 -42 145 -40 65 3 67 -5 33 -81 -31 -70
-31 -200 0 -269 28 -60 55 -91 104 -116 64 -33 77 -94 27 -131 -32 -24 -118
-34 -161 -19 -48 17 -69 -8 -69 -83 0 -64 23 -114 62 -133 30 -16 89 -16 126
-2 44 18 249 21 311 5 28 -8 52 -13 52 -11 0 2 78 -23 173 -55 222 -77 303
-95 507 -116 36 -3 94 -16 130 -29 67 -23 97 -23 165 -1 22 7 83 23 135 36
174 41 295 113 270 160 -5 10 -17 21 -27 25 -17 6 -498 8 -570 2 -31 -3 -31
-3 -17 24 47 91 71 227 68 374 -2 61 -5 216 -7 345 -4 263 -7 274 -76 329 -50
40 -105 63 -156 66 -37 2 -40 5 -37 29 2 14 -4 40 -12 58 -9 17 -16 32 -16 33
0 2 44 13 90 21 102 19 266 20 361 3 115 -21 151 14 87 83 -64 68 -100 76
-243 54 -16 -3 -57 -8 -90 -11 -33 -3 -77 -8 -97 -10 -21 -2 -38 -2 -38 1 0
12 86 88 178 157 69 52 94 77 101 101 23 85 -97 219 -238 265 -62 20 -131 28
-131 15z m89 -928 c7 -8 16 -28 21 -45 29 -102 32 -640 4 -679 -12 -16 -15
-15 -41 10 -43 40 -100 51 -188 35 -16 -3 -46 -8 -65 -11 -19 -3 -47 -8 -62
-11 -25 -5 -28 -2 -29 22 0 16 -3 40 -5 56 -4 23 -1 27 18 28 60 1 116 12 177
34 36 13 86 27 111 31 77 12 99 47 60 97 -29 37 -72 42 -192 23 -197 -32 -178
-33 -178 8 0 34 2 36 33 36 18 0 57 7 87 15 30 9 97 27 149 40 52 14 100 30
108 36 21 18 15 65 -13 98 -22 26 -33 31 -70 31 -24 0 -81 -11 -126 -24 -46
-13 -100 -26 -121 -29 -38 -6 -38 -6 -33 24 6 38 16 46 151 112 170 84 183 88
204 63z"/>
<path d="M503 2124 c-8 -21 10 -52 73 -120 41 -45 52 -65 49 -83 -2 -13 -5
-24 -7 -25 -58 -25 -89 -60 -103 -118 -9 -37 2 -35 65 7 50 34 157 72 229 82
68 8 80 13 86 32 20 63 -126 198 -201 185 -13 -2 -57 9 -99 26 -88 35 -84 34
-92 14z"/>
</g>
</svg>
